<svg xmlns="http://www.w3.org/2000/svg" viewBox="0 0 960 460" role="img" aria-labelledby="title desc">
<title id="title">Backtest do último fold de 28 dias</title>
<desc id="desc">Demanda observada, seasonal naive, regressão de calendário e intervalo empírico de 80 por cento.</desc>
<rect width="100%" height="100%" fill="#f8f3e8"/>
<text x="72" y="30" font-family="Georgia, serif" font-size="21" fill="#171612">Último fold · origem móvel · horizonte de 28 dias</text>
<line x1="72.0" y1="58" x2="72.0" y2="402" stroke="#171612" opacity=".12"/>
<text x="72.0" y="432" text-anchor="middle" font-family="monospace" font-size="12" fill="#656057">03/12</text>
<line x1="295.0" y1="58" x2="295.0" y2="402" stroke="#171612" opacity=".12"/>
<text x="295.0" y="432" text-anchor="middle" font-family="monospace" font-size="12" fill="#656057">10/12</text>
<line x1="517.9" y1="58" x2="517.9" y2="402" stroke="#171612" opacity=".12"/>
<text x="517.9" y="432" text-anchor="middle" font-family="monospace" font-size="12" fill="#656057">17/12</text>
<line x1="740.9" y1="58" x2="740.9" y2="402" stroke="#171612" opacity=".12"/>
<text x="740.9" y="432" text-anchor="middle" font-family="monospace" font-size="12" fill="#656057">24/12</text>
<line x1="72" y1="58" x2="72" y2="402" stroke="#171612"/>
<line x1="72" y1="402" x2="932" y2="402" stroke="#171612"/>
<polygon points="72.0,287.8 103.9,320.3 135.7,351.6 167.6,385.8 199.4,330.3 231.3,270.3 263.1,248.1 295.0,278.9 326.8,311.3 358.7,342.5 390.5,376.7 422.4,321.1 454.2,261.1 486.1,238.9 517.9,269.6 549.8,302.0 581.6,333.1 613.5,367.3 645.3,311.6 677.2,251.6 709.0,229.3 740.9,260.0 772.7,292.4 804.6,323.5 836.4,357.6 868.3,302.0 900.1,241.9 932.0,219.6 932.0,112.4 900.1,134.7 868.3,194.7 836.4,250.4 804.6,216.3 772.7,185.1 740.9,152.8 709.0,122.1 677.2,144.4 645.3,204.4 613.5,260.1 581.6,225.9 549.8,194.7 517.9,162.4 486.1,131.6 454.2,153.9 422.4,213.9 390.5,269.5 358.7,235.3 326.8,204.1 295.0,171.7 263.1,140.9 231.3,163.1 199.4,223.0 167.6,278.6 135.7,244.3 103.9,213.1 72.0,180.6" fill="#e3cf79" opacity=".55"/>
<polyline points="72.0,287.9 103.9,320.1 135.7,379.0 167.6,374.3 199.4,250.8 231.3,269.8 263.1,267.3 295.0,214.7 326.8,273.9 358.7,269.4 390.5,287.6 422.4,265.7 454.2,260.0 486.1,190.2 517.9,191.9 549.8,274.6 581.6,338.0 613.5,263.0 645.3,273.2 677.2,213.3 709.0,174.8 740.9,160.2 772.7,229.6 804.6,282.3 836.4,270.8 868.3,156.5 900.1,128.6 932.0,137.6" fill="none" stroke="#656057" stroke-width="3" stroke-dasharray="7 6"/>
<polyline points="72.0,234.2 103.9,266.7 135.7,297.9 167.6,332.2 199.4,276.6 231.3,216.7 263.1,194.5 295.0,225.3 326.8,257.7 358.7,288.9 390.5,323.1 422.4,267.5 454.2,207.5 486.1,185.2 517.9,216.0 549.8,248.4 581.6,279.5 613.5,313.7 645.3,258.0 677.2,198.0 709.0,175.7 740.9,206.4 772.7,238.8 804.6,269.9 836.4,304.0 868.3,248.4 900.1,188.3 932.0,166.0" fill="none" stroke="#a43a2b" stroke-width="3"/>
<polyline points="72.0,214.7 103.9,273.9 135.7,269.4 167.6,287.6 199.4,265.7 231.3,260.0 263.1,190.2 295.0,191.9 326.8,274.6 358.7,338.0 390.5,263.0 422.4,273.2 454.2,213.3 486.1,174.8 517.9,160.2 549.8,229.6 581.6,282.3 613.5,270.8 645.3,156.5 677.2,128.6 709.0,137.6 740.9,240.2 772.7,74.2 804.6,308.5 836.4,304.9 868.3,265.4 900.1,108.7 932.0,138.2" fill="none" stroke="#171612" stroke-width="3"/>
<g font-family="monospace" font-size="12" fill="#171612"><text x="690" y="30">observado</text><text x="770" y="30" fill="#a43a2b">modelo</text><text x="850" y="30" fill="#656057">naive</text></g>
</svg>